<?xml version="1.0" encoding="UTF-8"?>
<!DOCTYPE svg PUBLIC "-//W3C//DTD SVG 1.1//EN" "http://www.w3.org/Graphics/SVG/1.1/DTD/svg11.dtd">

<svg xmlns="http://www.w3.org/2000/svg" xmlns:xlink="http://www.w3.org/1999/xlink" xmlns:xs="http://www.w3.org/2001/XMLSchema" xmlns:wb="http://www.ti.com/webench" version="1.1" width="100%" height="100%" viewBox="0 0 1380.0 520.0" preserveAspectRatio="xMidYMid meet">
  <defs />
  <use id="Css" class="comp" xlink:href="#WB_CAPACITOR" x="535.0" y="360.0" transform="rotate(-90, 535.0, 360.0)" cap="8.2nF" partNo="GRM033R71A822KA01D" thermalId="0201" esr="1mOhm" manufacturer="MuRata" />
  <text for="Css" x="550.0" y="360.0" style="font-family:arial;font-size:13px;stroke-width:0.5;stroke:#115566;fill:#115566;">Css</text>
  <text for="Css" x="550.0" y="370.0" style="font-family:arial;font-size:10px;stroke-width:0.1;stroke:#CC0000;fill:#CC0000;">8.2nF</text>
  <text for="Css" x="550.0" y="380.0" style="font-family:arial;font-size:10px;stroke-width:0.1;stroke:#CC0000;fill:#CC0000;">1mOhm</text>
  <use id="Ccomp2" class="comp" xlink:href="#WB_CAPACITOR" x="355.0" y="360.0" transform="rotate(-90, 355.0, 360.0)" cap="6.8pF" partNo="06031U6R8BAT2A" thermalId="0603" esr="0Ohm" manufacturer="AVX" />
  <text for="Ccomp2" x="370.0" y="360.0" style="font-family:arial;font-size:13px;stroke-width:0.5;stroke:#115566;fill:#115566;">Ccomp2</text>
  <text for="Ccomp2" x="370.0" y="370.0" style="font-family:arial;font-size:10px;stroke-width:0.1;stroke:#CC0000;fill:#CC0000;">6.8pF</text>
  <text for="Ccomp2" x="370.0" y="380.0" style="font-family:arial;font-size:10px;stroke-width:0.1;stroke:#CC0000;fill:#CC0000;">0Ohm</text>
  <use id="U1" class="comp" xlink:href="#WB_TPS54231" x="675.0" y="240.0" />
  <text for="U1" x="655.0" y="240.0" style="font-family:arial;font-size:13px;stroke-width:0.5;stroke:#115566;fill:#115566;">U1</text>
  <use id="Rfbb" class="comp" xlink:href="#WB_RESISTOR" x="1100.0" y="370.0" transform="rotate(-90, 1100.0, 370.0)" partNo="CRCW04021K96FKED" thermalId="0402" resistance="1.96kOhm" manufacturer="Vishay-Dale" />
  <text for="Rfbb" x="1115.0" y="370.0" style="font-family:arial;font-size:13px;stroke-width:0.5;stroke:#115566;fill:#115566;">Rfbb</text>
  <text for="Rfbb" x="1115.0" y="380.0" style="font-family:arial;font-size:10px;stroke-width:0.1;stroke:#CC0000;fill:#CC0000;">1.96kOhm</text>
  <use id="GND" class="other" xlink:href="#WB_GND" x="685.0" y="420.0" />
  <use id="RenB" class="comp" xlink:href="#WB_RESISTOR" x="290.0" y="270.0" transform="rotate(-90, 290.0, 270.0)" partNo="CRCW040219K6FKED" thermalId="0402" resistance="19.6kOhm" manufacturer="Vishay-Dale" />
  <text for="RenB" x="305.0" y="270.0" style="font-family:arial;font-size:13px;stroke-width:0.5;stroke:#115566;fill:#115566;">RenB</text>
  <text for="RenB" x="305.0" y="280.0" style="font-family:arial;font-size:10px;stroke-width:0.1;stroke:#CC0000;fill:#CC0000;">19.6kOhm</text>
  <use id="RenT" class="comp" xlink:href="#WB_RESISTOR" x="290.0" y="170.0" transform="rotate(-90, 290.0, 170.0)" partNo="CRCW0402169KFKED" thermalId="0402" resistance="169kOhm" manufacturer="Vishay-Dale" />
  <text for="RenT" x="305.0" y="170.0" style="font-family:arial;font-size:13px;stroke-width:0.5;stroke:#115566;fill:#115566;">RenT</text>
  <text for="RenT" x="305.0" y="180.0" style="font-family:arial;font-size:10px;stroke-width:0.1;stroke:#CC0000;fill:#CC0000;">169kOhm</text>
  <use id="Cboot" class="comp" xlink:href="#WB_CAPACITOR" x="845.0" y="160.0" transform="rotate(-90, 845.0, 160.0)" cap="100nF" partNo="GRM155R71A104KA01D" thermalId="0402" esr="1mOhm" manufacturer="MuRata" />
  <text for="Cboot" x="860.0" y="160.0" style="font-family:arial;font-size:13px;stroke-width:0.5;stroke:#115566;fill:#115566;">Cboot</text>
  <text for="Cboot" x="860.0" y="170.0" style="font-family:arial;font-size:10px;stroke-width:0.1;stroke:#CC0000;fill:#CC0000;">100nF</text>
  <text for="Cboot" x="860.0" y="180.0" style="font-family:arial;font-size:10px;stroke-width:0.1;stroke:#CC0000;fill:#CC0000;">1mOhm</text>
  <use id="Cin" class="comp" xlink:href="#WB_CAPACITOR" x="195.0" y="275.0" transform="rotate(-90, 195.0, 275.0)" cap="10uF" partNo="C3225X7R1H106M250AC" thermalId="1210" esr="1mOhm" manufacturer="TDK" />
  <text for="Cin" x="210.0" y="275.0" style="font-family:arial;font-size:13px;stroke-width:0.5;stroke:#115566;fill:#115566;">Cin</text>
  <text for="Cin" x="210.0" y="285.0" style="font-family:arial;font-size:10px;stroke-width:0.1;stroke:#CC0000;fill:#CC0000;">10uF</text>
  <text for="Cin" x="210.0" y="295.0" style="font-family:arial;font-size:10px;stroke-width:0.1;stroke:#CC0000;fill:#CC0000;">1mOhm</text>
  <text for="Cin" x="210.0" y="305.0" style="font-family:arial;font-size:10px;stroke-width:0.1;stroke:#CC0000;fill:#CC0000;">Qty=2</text>
  <use id="L1" class="comp" xlink:href="#WB_INDUCTOR" x="1055.0" y="190.0" transform="rotate(-180, 1055.0, 190.0) scale(1,-1) translate(0,-380.0)" partNo="DR1040-150-R" thermalId="DR1040" l="15uH" dcr="50mOhm" manufacturer="Coiltronics" />
  <text for="L1" x="1035.0" y="175.0" style="font-family:arial;font-size:13px;stroke-width:0.5;stroke:#115566;fill:#115566;">L1</text>
  <text for="L1" x="1035.0" y="210.0" style="font-family:arial;font-size:10px;stroke-width:0.1;stroke:#CC0000;fill:#CC0000;">15uH</text>
  <text for="L1" x="1035.0" y="220.0" style="font-family:arial;font-size:10px;stroke-width:0.1;stroke:#CC0000;fill:#CC0000;">50mOhm</text>
  <use id="Rfbt" class="comp" xlink:href="#WB_RESISTOR" x="1100.0" y="250.0" transform="rotate(-90, 1100.0, 250.0)" partNo="CRCW040210K2FKED" thermalId="0402" resistance="10.2kOhm" manufacturer="Vishay-Dale" />
  <text for="Rfbt" x="1115.0" y="250.0" style="font-family:arial;font-size:13px;stroke-width:0.5;stroke:#115566;fill:#115566;">Rfbt</text>
  <text for="Rfbt" x="1115.0" y="260.0" style="font-family:arial;font-size:10px;stroke-width:0.1;stroke:#CC0000;fill:#CC0000;">10.2kOhm</text>
  <use id="GND2" class="other" xlink:href="#WB_GND" x="960.0" y="285.0" />
  <use id="Cout" class="comp" xlink:href="#WB_CAPACITOR" x="1190.0" y="310.0" transform="rotate(-90, 1190.0, 310.0)" cap="47uF" partNo="GRM32ER61C476KE15L" thermalId="1210_280" esr="3.037mOhm" manufacturer="MuRata" />
  <text for="Cout" x="1205.0" y="310.0" style="font-family:arial;font-size:13px;stroke-width:0.5;stroke:#115566;fill:#115566;">Cout</text>
  <text for="Cout" x="1205.0" y="320.0" style="font-family:arial;font-size:10px;stroke-width:0.1;stroke:#CC0000;fill:#CC0000;">47uF</text>
  <text for="Cout" x="1205.0" y="330.0" style="font-family:arial;font-size:10px;stroke-width:0.1;stroke:#CC0000;fill:#CC0000;">3.037mOhm</text>
  <text for="Cout" x="1205.0" y="340.0" style="font-family:arial;font-size:10px;stroke-width:0.1;stroke:#CC0000;fill:#CC0000;">Qty=2</text>
  <use id="D1" class="comp" xlink:href="#WB_DIODE_SCHOTTKY" x="960.0" y="235.0" transform="rotate(-270, 960.0, 235.0)" vfatio="650mV" partNo="FSV360FP" io="3A" thermalId="SOD-123HE" vrrm="" manufacturer="Fairchild Semiconductor" />
  <text for="D1" x="975.0" y="235.0" style="font-family:arial;font-size:13px;stroke-width:0.5;stroke:#115566;fill:#115566;">D1</text>
  <text for="D1" x="975.0" y="245.0" style="font-family:arial;font-size:10px;stroke-width:0.1;stroke:#CC0000;fill:#CC0000;">650mV</text>
  <text for="D1" x="975.0" y="255.0" style="font-family:arial;font-size:10px;stroke-width:0.1;stroke:#CC0000;fill:#CC0000;">3A</text>
  <use id="Ccomp" class="comp" xlink:href="#WB_CAPACITOR" x="455.0" y="365.0" transform="rotate(-90, 455.0, 365.0)" cap="1nF" partNo="GRM1555C1H102JA01J" thermalId="0402" esr="0Ohm" manufacturer="MuRata" />
  <text for="Ccomp" x="470.0" y="365.0" style="font-family:arial;font-size:13px;stroke-width:0.5;stroke:#115566;fill:#115566;">Ccomp</text>
  <text for="Ccomp" x="470.0" y="375.0" style="font-family:arial;font-size:10px;stroke-width:0.1;stroke:#CC0000;fill:#CC0000;">1nF</text>
  <text for="Ccomp" x="470.0" y="385.0" style="font-family:arial;font-size:10px;stroke-width:0.1;stroke:#CC0000;fill:#CC0000;">0Ohm</text>
  <use id="Rcomp" class="comp" xlink:href="#WB_RESISTOR" x="455.0" y="300.0" transform="rotate(-90, 455.0, 300.0)" partNo="CRCW040241K2FKED" thermalId="0402" resistance="41.2kOhm" manufacturer="Vishay-Dale" />
  <text for="Rcomp" x="470.0" y="300.0" style="font-family:arial;font-size:13px;stroke-width:0.5;stroke:#115566;fill:#115566;">Rcomp</text>
  <text for="Rcomp" x="470.0" y="310.0" style="font-family:arial;font-size:10px;stroke-width:0.1;stroke:#CC0000;fill:#CC0000;">41.2kOhm</text>
  <use id="Iout" class="other" xlink:href="#WB_CURRENT_LOAD" x="1280.0" y="330.0" transform="rotate(-270, 1280.0, 330.0)" />
  <text for="Iout" x="1295.0" y="330.0" style="font-family:arial;font-size:13px;stroke-width:0.5;stroke:#CC0000;fill:#CC0000;">Iout</text>
  <use id="Vin" class="other" xlink:href="#WB_BATTERY" x="100.0" y="270.0" transform="rotate(-270, 100.0, 270.0)" />
  <text for="Vin" x="115.0" y="270.0" style="font-family:arial;font-size:13px;stroke-width:0.5;stroke:#CC0000;fill:#CC0000;">Vin</text>
  <line x1="290.0" y1="205.0" x2="495.0" y2="205.0" stroke="#000000" stroke-width="2" fill="none" />
  <line x1="290.0" y1="240.0" x2="290.0" y2="200.0" stroke="#000000" stroke-width="2" fill="none" />
  <line x1="495.0" y1="205.0" x2="495.0" y2="190.0" stroke="#000000" stroke-width="2" fill="none" />
  <line x1="290.0" y1="140.0" x2="290.0" y2="130.0" stroke="#000000" stroke-width="2" fill="none" />
  <line x1="290.0" y1="410.0" x2="290.0" y2="300.0" stroke="#000000" stroke-width="2" fill="none" />
  <line x1="755.0" y1="320.0" x2="1100.0" y2="320.0" stroke="#000000" stroke-width="2" fill="none" />
  <line x1="355.0" y1="390.0" x2="355.0" y2="410.0" stroke="#000000" stroke-width="2" fill="none" />
  <line x1="770.0" y1="100.0" x2="845.0" y2="100.0" stroke="#000000" stroke-width="2" fill="none" />
  <line x1="1100.0" y1="410.0" x2="1100.0" y2="400.0" stroke="#000000" stroke-width="2" fill="none" />
  <line x1="1100.0" y1="220.0" x2="1100.0" y2="190.0" stroke="#000000" stroke-width="2" fill="none" />
  <line x1="845.0" y1="100.0" x2="845.0" y2="130.0" stroke="#000000" stroke-width="2" fill="none" />
  <line x1="195.0" y1="245.0" x2="195.0" y2="130.0" stroke="#000000" stroke-width="2" fill="none" />
  <line x1="455.0" y1="270.0" x2="455.0" y2="260.0" stroke="#000000" stroke-width="2" fill="none" />
  <line x1="195.0" y1="305.0" x2="195.0" y2="410.0" stroke="#000000" stroke-width="2" fill="none" />
  <line x1="1190.0" y1="340.0" x2="1190.0" y2="410.0" stroke="#000000" stroke-width="2" fill="none" />
  <line x1="455.0" y1="410.0" x2="455.0" y2="395.0" stroke="#000000" stroke-width="2" fill="none" />
  <line x1="355.0" y1="330.0" x2="355.0" y2="260.0" stroke="#000000" stroke-width="2" fill="none" />
  <line x1="770.0" y1="160.0" x2="770.0" y2="100.0" stroke="#000000" stroke-width="2" fill="none" />
  <line x1="755.0" y1="350.0" x2="755.0" y2="410.0" stroke="#000000" stroke-width="2" fill="none" />
  <line x1="595.0" y1="260.0" x2="355.0" y2="260.0" stroke="#000000" stroke-width="2" fill="none" />
  <line x1="595.0" y1="190.0" x2="495.0" y2="190.0" stroke="#000000" stroke-width="2" fill="none" />
  <line x1="960.0" y1="275.0" x2="960.0" y2="265.0" stroke="#000000" stroke-width="2" fill="none" />
  <line x1="960.0" y1="190.0" x2="960.0" y2="205.0" stroke="#000000" stroke-width="2" fill="none" />
  <line x1="535.0" y1="390.0" x2="535.0" y2="410.0" stroke="#000000" stroke-width="2" fill="none" />
  <line x1="1100.0" y1="340.0" x2="1100.0" y2="280.0" stroke="#000000" stroke-width="2" fill="none" />
  <line x1="535.0" y1="290.0" x2="595.0" y2="290.0" stroke="#000000" stroke-width="2" fill="none" />
  <line x1="755.0" y1="160.0" x2="770.0" y2="160.0" stroke="#000000" stroke-width="2" fill="none" />
  <line x1="455.0" y1="330.0" x2="455.0" y2="335.0" stroke="#000000" stroke-width="2" fill="none" />
  <line x1="535.0" y1="330.0" x2="535.0" y2="290.0" stroke="#000000" stroke-width="2" fill="none" />
  <line x1="1190.0" y1="280.0" x2="1190.0" y2="190.0" stroke="#000000" stroke-width="2" fill="none" />
  <line x1="755.0" y1="190.0" x2="1025.0" y2="190.0" stroke="#000000" stroke-width="2" fill="none" />
  <line x1="1085.0" y1="190.0" x2="1280.0" y2="190.0" stroke="#000000" stroke-width="2" fill="none" />
  <line x1="100.0" y1="130.0" x2="595.0" y2="130.0" stroke="#000000" stroke-width="2" fill="none" />
  <line x1="100.0" y1="410.0" x2="1280.0" y2="410.0" stroke="#000000" stroke-width="2" fill="none" />
  <line x1="1280.0" y1="300.0" x2="1280.0" y2="190.0" stroke="#000000" stroke-width="2" fill="none" />
  <line x1="1280.0" y1="410.0" x2="1280.0" y2="360.0" stroke="#000000" stroke-width="2" fill="none" />
  <line x1="100.0" y1="240.0" x2="100.0" y2="130.0" stroke="#000000" stroke-width="2" fill="none" />
  <line x1="100.0" y1="410.0" x2="100.0" y2="300.0" stroke="#000000" stroke-width="2" fill="none" />
  <circle cx="290.0" cy="205.0" r="5" stroke="#000000" stroke-width="0" fill="#000000" />
  <circle cx="455.0" cy="260.0" r="5" stroke="#000000" stroke-width="0" fill="#000000" />
  <circle cx="1100.0" cy="320.0" r="5" stroke="#000000" stroke-width="0" fill="#000000" />
  <circle cx="960.0" cy="190.0" r="5" stroke="#000000" stroke-width="0" fill="#000000" />
  <circle cx="1100.0" cy="190.0" r="5" stroke="#000000" stroke-width="0" fill="#000000" />
  <circle cx="1190.0" cy="190.0" r="5" stroke="#000000" stroke-width="0" fill="#000000" />
  <circle cx="290.0" cy="130.0" r="5" stroke="#000000" stroke-width="0" fill="#000000" />
  <circle cx="195.0" cy="130.0" r="5" stroke="#000000" stroke-width="0" fill="#000000" />
  <circle cx="290.0" cy="410.0" r="5" stroke="#000000" stroke-width="0" fill="#000000" />
  <circle cx="355.0" cy="410.0" r="5" stroke="#000000" stroke-width="0" fill="#000000" />
  <circle cx="1100.0" cy="410.0" r="5" stroke="#000000" stroke-width="0" fill="#000000" />
  <circle cx="195.0" cy="410.0" r="5" stroke="#000000" stroke-width="0" fill="#000000" />
  <circle cx="1190.0" cy="410.0" r="5" stroke="#000000" stroke-width="0" fill="#000000" />
  <circle cx="455.0" cy="410.0" r="5" stroke="#000000" stroke-width="0" fill="#000000" />
  <circle cx="755.0" cy="410.0" r="5" stroke="#000000" stroke-width="0" fill="#000000" />
  <circle cx="535.0" cy="410.0" r="5" stroke="#000000" stroke-width="0" fill="#000000" />
</svg>

